<mxfile host="app.diagrams.net" modified="2023-09-01T19:11:35.463Z" agent="Mozilla/5.0 (Windows NT 10.0; Win64; x64) AppleWebKit/537.36 (KHTML, like Gecko) Chrome/116.0.0.0 Safari/537.36" etag="1SwYfDQLipKst2aWgI1L" version="21.6.9" type="github">
  <diagram name="Page-1" id="FET9YpiDJw--xy1hgMNF">
    <mxGraphModel dx="1050" dy="574" grid="1" gridSize="10" guides="1" tooltips="1" connect="1" arrows="1" fold="1" page="1" pageScale="1" pageWidth="850" pageHeight="1100" math="0" shadow="0">
      <root>
        <mxCell id="0" />
        <mxCell id="1" parent="0" />
        <mxCell id="WO2xcC6dLAIyjGySu0hG-1" style="edgeStyle=orthogonalEdgeStyle;orthogonalLoop=1;jettySize=auto;html=1;entryX=0.588;entryY=0.04;entryDx=0;entryDy=0;entryPerimeter=0;curved=1;" edge="1" parent="1" source="GbNlxs8gPA49xpMItRAl-1" target="GbNlxs8gPA49xpMItRAl-3">
          <mxGeometry relative="1" as="geometry" />
        </mxCell>
        <mxCell id="WO2xcC6dLAIyjGySu0hG-2" style="edgeStyle=orthogonalEdgeStyle;orthogonalLoop=1;jettySize=auto;html=1;entryX=0;entryY=0.5;entryDx=0;entryDy=0;exitX=0;exitY=0.5;exitDx=0;exitDy=0;curved=1;startArrow=classic;startFill=1;endArrow=none;endFill=0;" edge="1" parent="1" source="GbNlxs8gPA49xpMItRAl-2" target="GbNlxs8gPA49xpMItRAl-3">
          <mxGeometry relative="1" as="geometry">
            <Array as="points">
              <mxPoint x="320" y="390" />
              <mxPoint x="320" y="220" />
            </Array>
          </mxGeometry>
        </mxCell>
        <mxCell id="GbNlxs8gPA49xpMItRAl-1" value="GPS" style="rounded=0;whiteSpace=wrap;html=1;" parent="1" vertex="1">
          <mxGeometry x="160" y="80" width="120" height="60" as="geometry" />
        </mxCell>
        <mxCell id="GbNlxs8gPA49xpMItRAl-2" value="Visor" style="rounded=0;whiteSpace=wrap;html=1;" parent="1" vertex="1">
          <mxGeometry x="365" y="360" width="120" height="60" as="geometry" />
        </mxCell>
        <mxCell id="GbNlxs8gPA49xpMItRAl-3" value="SIstema central" style="rounded=0;whiteSpace=wrap;html=1;" parent="1" vertex="1">
          <mxGeometry x="365" y="190" width="120" height="60" as="geometry" />
        </mxCell>
      </root>
    </mxGraphModel>
  </diagram>
</mxfile>
